{"title":"Against.The.Dark.2009.SWESUB.DVDRip.XviD.AC3.(5.1)-Zen_Bud","uid":5731168,"size":1469411572,"categoryP":"video","categoryS":"movies","magnet":"?xt=urn:btih:d99c1f94640d087066cd3b870bbbdb728865b750&amp;dn=Against.The.Dark.2009.SWESUB.DVDRip.XviD.AC3.%285.1%29-Zen_Bud&amp;tr=udp%3A%2F%2Ftracker.openbittorrent.com%3A80&amp;tr=udp%3A%2F%2Fopen.demonii.com%3A1337&amp;tr=udp%3A%2F%2Ftracker.coppersurfer.tk%3A6969&amp;tr=udp%3A%2F%2Fexodus.desync.com%3A6969","seeders":0,"leechers":1,"uploader":"Zen_Bud","files":1,"time":1280652350,"description":"General\nComplete name                    : Against.The.Dark.2009.avi\nFormat                           : AVI\nFile size                        : 1.37 GiB\nDuration                         : 1h 30mn\nOverall bit rate                 : 2 176 Kbps\n\nVideo\n\nFormat                           : MPEG-4 Visual\nCodec ID/Hint                    : XviD\nDuration                         : 1h 30mn\nBit rate                         : 1 717 Kbps\nWidth                            : 716 pixels\nHeight                           : 552 pixels\nDisplay aspect ratio             : 16:9\nStream size                      : 1.08 GiB (79%)\nWriting library                  : XviD 1.1.2 (UTC 2006-11-01)\n\nAudio\n\nFormat                           : AC-3\nDuration                         : 1h 30mn\nBit rate                         : 448 Kbps\nChannel(s)                       : 6 channels\nChannel positions                : Front: L C R, Side: L R, LFE\nSampling rate                    : 48.0 KHz\nStream size                      : 289 MiB (21%)","torrent":{"xt":"urn:btih:d99c1f94640d087066cd3b870bbbdb728865b750","amp;dn":"Against.The.Dark.2009.SWESUB.DVDRip.XviD.AC3.%285.1%29-Zen_Bud","amp;tr":["udp%3A%2F%2Ftracker.openbittorrent.com%3A80","udp%3A%2F%2Fopen.demonii.com%3A1337","udp%3A%2F%2Ftracker.coppersurfer.tk%3A6969","udp%3A%2F%2Fexodus.desync.com%3A6969"],"infoHash":"d99c1f94640d087066cd3b870bbbdb728865b750","infoHashBuffer":{"type":"Buffer","data":[217,156,31,148,100,13,8,112,102,205,59,135,11,187,219,114,136,101,183,80]},"announce":[],"urlList":[]}}